<svg width="88" height="80" viewBox="0 0 88 80" fill="none" xmlns="http://www.w3.org/2000/svg">
<g clip-path="url(#clip0_0_1)">
<mask id="path-1-outside-1_0_1" maskUnits="userSpaceOnUse" x="20" y="17" width="51" height="44" fill="black">
<rect fill="white" x="20" y="17" width="51" height="44"/>
<path d="M57.05 39.15H54.2C55.8 35.6 57.45 32.9 59 31.15H22.55V27.6H59C57.4 25.85 55.8 23.15 54.2 19.65H57.05C60.55 23.75 64.25 26.75 68.05 28.7V30.1C64.25 32.05 60.55 35.05 57.05 39.15ZM33.55 58.65C30.05 54.55 26.35 51.55 22.55 49.6V48.2C26.35 46.25 30.05 43.25 33.55 39.15H36.4C34.8 42.65 33.2 45.35 31.6 47.1H68.05V50.65H31.6C33.15 52.4 34.8 55.1 36.4 58.65H33.55Z"/>
</mask>
<path d="M57.05 39.15H54.2C55.8 35.6 57.45 32.9 59 31.15H22.55V27.6H59C57.4 25.85 55.8 23.15 54.2 19.65H57.05C60.55 23.75 64.25 26.75 68.05 28.7V30.1C64.25 32.05 60.55 35.05 57.05 39.15ZM33.55 58.65C30.05 54.55 26.35 51.55 22.55 49.6V48.2C26.35 46.25 30.05 43.25 33.55 39.15H36.4C34.8 42.65 33.2 45.35 31.6 47.1H68.05V50.65H31.6C33.15 52.4 34.8 55.1 36.4 58.65H33.55Z" fill="#34D399"/>
<path d="M57.05 39.15V41.15H57.9723L58.5711 40.4485L57.05 39.15ZM54.2 39.15L52.3766 38.3282L51.1048 41.15H54.2V39.15ZM59 31.15L60.4972 32.4761L63.4431 29.15H59V31.15ZM22.55 31.15H20.55V33.15H22.55V31.15ZM22.55 27.6V25.6H20.55V27.6H22.55ZM59 27.6V29.6H63.5385L60.4761 26.2505L59 27.6ZM54.2 19.65V17.65H51.0866L52.3811 20.4815L54.2 19.65ZM57.05 19.65L58.5711 18.3515L57.9723 17.65H57.05V19.65ZM68.05 28.7H70.05V27.4784L68.9631 26.9206L68.05 28.7ZM68.05 30.1L68.9631 31.8794L70.05 31.3216V30.1H68.05ZM33.55 58.65L32.0289 59.9485L32.6277 60.65H33.55V58.65ZM22.55 49.6H20.55V50.8216L21.6369 51.3794L22.55 49.6ZM22.55 48.2L21.6369 46.4206L20.55 46.9784V48.2H22.55ZM33.55 39.15V37.15H32.6277L32.0289 37.8515L33.55 39.15ZM36.4 39.15L38.219 39.9815L39.5134 37.15H36.4V39.15ZM31.6 47.1L30.1239 45.7505L27.0615 49.1H31.6V47.1ZM68.05 47.1H70.05V45.1H68.05V47.1ZM68.05 50.65V52.65H70.05V50.65H68.05ZM31.6 50.65V48.65H27.1569L30.1028 51.9761L31.6 50.65ZM36.4 58.65V60.65H39.4952L38.2234 57.8282L36.4 58.65ZM57.05 39.15V37.15H54.2V39.15V41.15H57.05V39.15ZM54.2 39.15L56.0234 39.9718C57.5794 36.5194 59.1314 34.0181 60.4972 32.4761L59 31.15L57.5028 29.8239C55.7686 31.7819 54.0206 34.6806 52.3766 38.3282L54.2 39.15ZM59 31.15V29.15H22.55V31.15V33.15H59V31.15ZM22.55 31.15H24.55V27.6H22.55H20.55V31.15H22.55ZM22.55 27.6V29.6H59V27.6V25.6H22.55V27.6ZM59 27.6L60.4761 26.2505C59.085 24.729 57.588 22.2509 56.019 18.8185L54.2 19.65L52.3811 20.4815C54.012 24.0491 55.715 26.971 57.5239 28.9495L59 27.6ZM54.2 19.65V21.65H57.05V19.65V17.65H54.2V19.65ZM57.05 19.65L55.5289 20.9485C59.166 25.2091 63.0643 28.3895 67.1369 30.4794L68.05 28.7L68.9631 26.9206C65.4357 25.1105 61.934 22.2909 58.5711 18.3515L57.05 19.65ZM68.05 28.7H66.05V30.1H68.05H70.05V28.7H68.05ZM68.05 30.1L67.1369 28.3206C63.0643 30.4105 59.166 33.5909 55.5289 37.8515L57.05 39.15L58.5711 40.4485C61.934 36.5091 65.4357 33.6895 68.9631 31.8794L68.05 30.1ZM33.55 58.65L35.0711 57.3515C31.434 53.0909 27.5357 49.9105 23.4631 47.8206L22.55 49.6L21.6369 51.3794C25.1643 53.1895 28.666 56.0091 32.0289 59.9485L33.55 58.65ZM22.55 49.6H24.55V48.2H22.55H20.55V49.6H22.55ZM22.55 48.2L23.4631 49.9794C27.5357 47.8895 31.434 44.7091 35.0711 40.4485L33.55 39.15L32.0289 37.8515C28.666 41.7909 25.1643 44.6105 21.6369 46.4206L22.55 48.2ZM33.55 39.15V41.15H36.4V39.15V37.15H33.55V39.15ZM36.4 39.15L34.5811 38.3185C33.012 41.7509 31.515 44.229 30.1239 45.7505L31.6 47.1L33.0761 48.4495C34.885 46.471 36.588 43.5491 38.219 39.9815L36.4 39.15ZM31.6 47.1V49.1H68.05V47.1V45.1H31.6V47.1ZM68.05 47.1H66.05V50.65H68.05H70.05V47.1H68.05ZM68.05 50.65V48.65H31.6V50.65V52.65H68.05V50.65ZM31.6 50.65L30.1028 51.9761C31.4686 53.5181 33.0206 56.0194 34.5766 59.4718L36.4 58.65L38.2234 57.8282C36.5794 54.1806 34.8314 51.2819 33.0972 49.3239L31.6 50.65ZM36.4 58.65V56.65H33.55V58.65V60.65H36.4V58.65Z" fill="#34D399" mask="url(#path-1-outside-1_0_1)"/>
<circle cx="44" cy="40" r="33.5" stroke="#34D399" stroke-width="7"/>
</g>
<defs>
<clipPath id="clip0_0_1">
<rect width="88" height="80" fill="white"/>
</clipPath>
</defs>
</svg>
